<?xml version="1.0" encoding="utf-8"?>
<!-- Generator: Adobe Illustrator 19.1.0, SVG Export Plug-In . SVG Version: 6.00 Build 0)  -->
<svg version="1.1" id="Capa_1" xmlns="http://www.w3.org/2000/svg" xmlns:xlink="http://www.w3.org/1999/xlink" x="0px" y="0px"
	 viewBox="0 0 323 69.7" style="enable-background:new 0 0 323 69.7;" xml:space="preserve">
<style type="text/css">
	.st0{fill:#343E48;}
	.st1{fill:#EDC000;}
</style>
<g>
	<g>
		<rect x="0" y="64.5" class="st0" width="323" height="5.2"/>
	</g>
</g>
<g>
	<g>
		<rect x="0" y="0" class="st0" width="323" height="5.2"/>
	</g>
</g>
<g>
	<g>
		<circle class="st1" cx="299.4" cy="40.8" r="12"/>
	</g>
</g>
<g>
	<g>
		<path class="st0" d="M35.9,34.1v14.5c-3.9,2.7-10.3,4.6-15.5,4.6C9.2,53.3,1,45.4,1,34.8c0-10.6,8.5-18.4,20.1-18.4
			c5.5,0,11.4,2.1,15.3,5.5l-6.1,7.4c-2.5-2.4-6.1-3.9-9.2-3.9c-5.2,0-9.1,4.1-9.1,9.5c0,5.5,4,9.5,9.2,9.5c1.5,0,3.5-0.5,5.5-1.4
			v-8.8H35.9z"/>
	</g>
	<g>
		<path class="st0" d="M51.9,25v5.7h17.1v8.2H51.9v5.7h19.3v8.2h-30V16.7h29.5V25H51.9z"/>
	</g>
	<g>
		<path class="st0" d="M108.7,22.8l-6.2,7.3c-2.3-2.9-5.6-4.8-8.6-4.8c-4.9,0-8.6,4-8.6,9.3c0,5.3,3.7,9.3,8.6,9.3
			c2.8,0,6.1-1.6,8.6-4.2l6.2,6.6c-3.9,4.2-9.8,7-15.3,7c-11,0-19.1-7.9-19.1-18.6c0-10.5,8.2-18.3,19.4-18.3
			C99.2,16.4,105,18.9,108.7,22.8z"/>
	</g>
	<g>
		<path class="st0" d="M148.7,34.7c0,10.6-8.3,18.6-19.7,18.6c-11.3,0-19.7-7.9-19.7-18.6c0-10.6,8.3-18.3,19.7-18.3
			C140.3,16.4,148.7,24.2,148.7,34.7z M120.3,34.8c0,5.5,4.1,9.5,8.9,9.5c4.7,0,8.6-4.1,8.6-9.5c0-5.5-3.8-9.4-8.6-9.4
			C124.3,25.4,120.3,29.3,120.3,34.8z"/>
	</g>
	<g>
		<path class="st0" d="M183.7,52.8l-0.1-21.4l-7.3,17.8h-7l-7.3-17.8v21.4h-9.4V16.7h11.5l8.7,20l8.7-20h11.5v36.1H183.7z"/>
	</g>
	<g>
		<path class="st0" d="M209.9,25v5.7h17.1v8.2h-17.1v5.7h19.3v8.2h-30V16.7h29.5V25H209.9z"/>
	</g>
	<g>
		<path class="st0" d="M270.3,52.8h-12.9l-6.9-10.3l-6.8,10.3h-12.5L244,34.4l-12-17.7h12.5l6,9.4l6-9.4h12.6L257.4,34L270.3,52.8z"
			/>
	</g>
</g>
<g>
	<g>
		<polygon class="st1" points="294.2,16.7 323,16.8 322.9,46.8 312.4,28 		"/>
	</g>
</g>
</svg>
